<svg width="150" height="37" viewBox="0 0 150 37" fill="none" xmlns="http://www.w3.org/2000/svg">
<rect x="0.5" y="0.5" width="149" height="36" fill="black"/>
<path d="M24.164 16.288C24.164 16.776 24.052 17.224 23.828 17.632C23.604 18.032 23.26 18.356 22.796 18.604C22.332 18.852 21.756 18.976 21.068 18.976H19.796V22H17.744V13.576H21.068C21.74 13.576 22.308 13.692 22.772 13.924C23.236 14.156 23.584 14.476 23.816 14.884C24.048 15.292 24.164 15.76 24.164 16.288ZM20.912 17.344C21.304 17.344 21.596 17.252 21.788 17.068C21.98 16.884 22.076 16.624 22.076 16.288C22.076 15.952 21.98 15.692 21.788 15.508C21.596 15.324 21.304 15.232 20.912 15.232H19.796V17.344H20.912ZM29.5283 22L27.7763 18.82H27.2843V22H25.2323V13.576H28.6763C29.3403 13.576 29.9043 13.692 30.3683 13.924C30.8403 14.156 31.1923 14.476 31.4243 14.884C31.6563 15.284 31.7723 15.732 31.7723 16.228C31.7723 16.788 31.6123 17.288 31.2923 17.728C30.9803 18.168 30.5163 18.48 29.9003 18.664L31.8443 22H29.5283ZM27.2843 17.368H28.5563C28.9323 17.368 29.2123 17.276 29.3963 17.092C29.5883 16.908 29.6843 16.648 29.6843 16.312C29.6843 15.992 29.5883 15.74 29.3963 15.556C29.2123 15.372 28.9323 15.28 28.5563 15.28H27.2843V17.368ZM37.0444 22.084C36.2524 22.084 35.5244 21.9 34.8604 21.532C34.2044 21.164 33.6804 20.652 33.2884 19.996C32.9044 19.332 32.7124 18.588 32.7124 17.764C32.7124 16.94 32.9044 16.2 33.2884 15.544C33.6804 14.888 34.2044 14.376 34.8604 14.008C35.5244 13.64 36.2524 13.456 37.0444 13.456C37.8364 13.456 38.5604 13.64 39.2164 14.008C39.8804 14.376 40.4004 14.888 40.7764 15.544C41.1604 16.2 41.3524 16.94 41.3524 17.764C41.3524 18.588 41.1604 19.332 40.7764 19.996C40.3924 20.652 39.8724 21.164 39.2164 21.532C38.5604 21.9 37.8364 22.084 37.0444 22.084ZM37.0444 20.212C37.7164 20.212 38.2524 19.988 38.6524 19.54C39.0604 19.092 39.2644 18.5 39.2644 17.764C39.2644 17.02 39.0604 16.428 38.6524 15.988C38.2524 15.54 37.7164 15.316 37.0444 15.316C36.3644 15.316 35.8204 15.536 35.4124 15.976C35.0124 16.416 34.8124 17.012 34.8124 17.764C34.8124 18.508 35.0124 19.104 35.4124 19.552C35.8204 19.992 36.3644 20.212 37.0444 20.212ZM50.21 22.492V24.46H42.77V22.492H50.21ZM57.3413 13.576V15.22H53.9093V16.996H56.4773V18.592H53.9093V22H51.8573V13.576H57.3413ZM62.4038 22.084C61.6118 22.084 60.8838 21.9 60.2198 21.532C59.5638 21.164 59.0398 20.652 58.6478 19.996C58.2638 19.332 58.0718 18.588 58.0718 17.764C58.0718 16.94 58.2638 16.2 58.6478 15.544C59.0398 14.888 59.5638 14.376 60.2198 14.008C60.8838 13.64 61.6118 13.456 62.4038 13.456C63.1958 13.456 63.9198 13.64 64.5758 14.008C65.2398 14.376 65.7598 14.888 66.1358 15.544C66.5198 16.2 66.7118 16.94 66.7118 17.764C66.7118 18.588 66.5198 19.332 66.1358 19.996C65.7518 20.652 65.2318 21.164 64.5758 21.532C63.9198 21.9 63.1958 22.084 62.4038 22.084ZM62.4038 20.212C63.0758 20.212 63.6118 19.988 64.0118 19.54C64.4198 19.092 64.6238 18.5 64.6238 17.764C64.6238 17.02 64.4198 16.428 64.0118 15.988C63.6118 15.54 63.0758 15.316 62.4038 15.316C61.7238 15.316 61.1798 15.536 60.7718 15.976C60.3718 16.416 60.1718 17.012 60.1718 17.764C60.1718 18.508 60.3718 19.104 60.7718 19.552C61.1798 19.992 61.7238 20.212 62.4038 20.212Z" fill="white"/>
<rect x="0.5" y="0.5" width="149" height="36" stroke="#3DCFD3"/>
</svg>
